<svg width="143" height="60" viewBox="0 0 143 60" fill="none" xmlns="http://www.w3.org/2000/svg">
<g id="Group 338">
<g id="lidera">
<path d="M81.56 36.4H72V23H74.6V34.16H81.56V36.4Z" fill="white"/>
<path d="M85.2008 36.4H82.6008V23H85.2008V36.4Z" fill="white"/>
<path d="M93.5953 36.4H86.7953V23H93.5953C97.7153 23 100.095 25.44 100.095 29.7C100.095 33.96 97.7153 36.4 93.5953 36.4ZM89.3953 25.24V34.16H93.4753C96.2153 34.16 97.4753 32.74 97.4753 29.7C97.4753 26.66 96.2153 25.24 93.4753 25.24H89.3953Z" fill="white"/>
<path d="M112.42 36.4H101.38V23H112.34V25.24H103.98V28.38H112.14V30.62H103.98V34.16H112.42V36.4Z" fill="white"/>
<path d="M116.417 36.4H113.817V23H122.297C124.937 23 126.497 24.3 126.497 26.52C126.497 28.3 125.417 29.24 124.097 29.54V29.78C125.177 30.12 125.437 30.62 125.717 31.98L126.657 36.4H124.017L123.277 32.46C123.017 31.1 122.577 30.66 120.937 30.66H116.417V36.4ZM116.417 25.24V28.44H121.997C123.257 28.44 123.857 27.98 123.857 26.84C123.857 25.7 123.317 25.24 122.117 25.24H116.417Z" fill="white"/>
<path d="M129.522 36.4H126.722L132.842 23H136.322L142.442 36.4H139.642L137.942 32.54H131.222L129.522 36.4ZM134.462 25.14L132.142 30.36H137.022L134.702 25.14H134.462Z" fill="white"/>
</g>
<path id="Vector" d="M30 0C13.4291 0 0 13.4291 0 30C0 46.5709 13.4291 60 30 60C46.5709 60 60 46.5709 60 30C60 13.4291 46.5709 0 30 0ZM20.7998 41.5334L17.3266 43.9461C17.0084 44.1715 16.5444 44.1052 16.2925 43.7605L7.95404 31.7631C7.71542 31.4185 7.82148 30.9545 8.13964 30.7291L29.2709 16.0274C29.589 15.8153 30.053 15.8683 30.2917 16.213L32.9297 20.0044C33.1551 20.3358 33.0623 20.8131 32.7574 21.0384L15.7092 32.89L20.9854 40.4728C21.2373 40.8308 21.1312 41.2815 20.7998 41.5069V41.5334ZM39.8763 43.9726C39.5316 44.2245 39.0676 44.1052 38.8422 43.8003L27.4149 27.3619C27.1896 27.0437 27.2559 26.5798 27.6005 26.3279L31.392 23.6898C31.7101 23.4644 32.2006 23.5572 32.426 23.8754L41.0164 36.2307L48.5992 30.9545C48.9571 30.7159 49.4079 30.8087 49.6332 31.1401L52.0592 34.6133C52.2846 34.9315 52.2183 35.3955 51.8736 35.6341L39.8763 43.9726Z" fill="white"/>
</g>
</svg>
