<svg width="119" height="50" viewBox="0 0 119 50" fill="none" xmlns="http://www.w3.org/2000/svg">
<path d="M67.9667 30.3334H60V19.1667H62.1667V28.4667H67.9667V30.3334Z" fill="#1B1D1C"/>
<path d="M71.0007 30.3334H68.834V19.1667H71.0007V30.3334Z" fill="#1B1D1C"/>
<path d="M77.9961 30.3334H72.3294V19.1667H77.9961C81.4294 19.1667 83.4128 21.2 83.4128 24.75C83.4128 28.3 81.4294 30.3334 77.9961 30.3334ZM74.4961 21.0334V28.4667H77.8961C80.1794 28.4667 81.2294 27.2834 81.2294 24.75C81.2294 22.2167 80.1794 21.0334 77.8961 21.0334H74.4961Z" fill="#1B1D1C"/>
<path d="M93.6837 30.3334H84.4837V19.1667H93.6171V21.0334H86.6504V23.65H93.4504V25.5167H86.6504V28.4667H93.6837V30.3334Z" fill="#1B1D1C"/>
<path d="M97.0143 30.3334H94.8477V19.1667H101.914C104.114 19.1667 105.414 20.25 105.414 22.1C105.414 23.5834 104.514 24.3667 103.414 24.6167V24.8167C104.314 25.1 104.531 25.5167 104.764 26.65L105.548 30.3334H103.348L102.731 27.05C102.514 25.9167 102.148 25.55 100.781 25.55H97.0143V30.3334ZM97.0143 21.0334V23.7H101.664C102.714 23.7 103.214 23.3167 103.214 22.3667C103.214 21.4167 102.764 21.0334 101.764 21.0334H97.0143Z" fill="#1B1D1C"/>
<path d="M107.935 30.3334H105.601L110.701 19.1667H113.601L118.701 30.3334H116.368L114.951 27.1167H109.351L107.935 30.3334ZM112.051 20.95L110.118 25.3H114.185L112.251 20.95H112.051Z" fill="#1B1D1C"/>
<path d="M25 0C11.1909 0 0 11.1909 0 25C0 38.8091 11.1909 50 25 50C38.8091 50 50 38.8091 50 25C50 11.1909 38.8091 0 25 0ZM17.3332 34.6111L14.4388 36.6217C14.1737 36.8095 13.787 36.7543 13.5771 36.4671L6.62837 26.4693C6.42952 26.1821 6.5179 25.7954 6.78303 25.6076L24.3924 13.3562C24.6575 13.1794 25.0442 13.2236 25.243 13.5108L27.4415 16.6703C27.6293 16.9465 27.5519 17.3442 27.2978 17.532L13.091 27.4083L17.4878 33.7274C17.6977 34.0256 17.6094 34.4012 17.3332 34.589V34.6111ZM33.2302 36.6438C32.943 36.8537 32.5563 36.7543 32.3685 36.5002L22.8458 22.8016C22.658 22.5365 22.7132 22.1498 23.0004 21.9399L26.16 19.7415C26.4251 19.5537 26.8338 19.631 27.0217 19.8962L34.1803 30.1922L40.4993 25.7954C40.7976 25.5966 41.1732 25.6739 41.361 25.9501L43.3827 28.8445C43.5705 29.1096 43.5152 29.4962 43.228 29.6951L33.2302 36.6438Z" fill="#1B1D1C"/>
</svg>
